<svg width="152" height="44" viewBox="0 0 152 44" fill="none" xmlns="http://www.w3.org/2000/svg">
<path d="M5.21804 19.4295C6.4037 18.5486 7.6322 17.9109 9.02346 17.6319C10.2853 17.3788 11.5435 17.3827 12.7857 17.7627C13.7496 18.0574 14.5392 18.6024 15.1253 19.4233C15.2399 19.5836 15.3082 19.5811 15.46 19.4756C16.8278 18.5248 18.3084 17.8318 19.9687 17.5739C21.2087 17.3813 22.4449 17.4019 23.6447 17.7984C25.2617 18.3328 26.1749 19.5066 26.565 21.1256C26.7396 21.8501 26.7955 22.5877 26.7958 23.3301C26.797 28.2547 26.7948 33.1792 26.8015 38.1038C26.8019 38.3294 26.7499 38.3943 26.5168 38.3927C24.9053 38.3817 23.2937 38.3814 21.6821 38.3931C21.4456 38.3948 21.4006 38.3251 21.401 38.1039C21.4074 33.6377 21.4067 29.1715 21.4038 24.7052C21.4035 24.4134 21.3903 24.1195 21.354 23.8302C21.2282 22.8307 20.7104 22.3707 19.7068 22.2667C18.6889 22.1613 17.7577 22.4356 16.8403 22.8172C16.356 23.0186 16.1137 23.3806 16.1133 23.9032C16.1133 28.6229 16.1106 33.3427 16.1202 38.0625C16.1208 38.3376 16.0423 38.3948 15.7815 38.393C14.1797 38.381 12.5779 38.3806 10.9761 38.3936C10.7278 38.3955 10.6782 38.3295 10.6786 38.0909C10.6864 33.6247 10.6847 29.1584 10.6837 24.6922C10.6837 24.3903 10.6816 24.089 10.6349 23.7882C10.4803 22.793 9.99325 22.3668 8.9839 22.2651C8.00715 22.1667 7.11025 22.4252 6.22434 22.7744C5.95305 22.8813 5.6013 22.9357 5.44367 23.1369C5.28275 23.3422 5.39801 23.7011 5.39789 23.9924C5.39532 28.6828 5.39337 33.3734 5.40314 38.0639C5.40375 38.341 5.32256 38.3948 5.06408 38.3929C3.46233 38.3813 1.86047 38.3831 0.258717 38.3919C0.0550649 38.393 0.00122153 38.3442 0.00134363 38.1372C0.00695994 31.4574 0.00732622 24.7776 5.96307e-07 18.0977C-0.000243591 17.8654 0.0744778 17.8333 0.280206 17.8344C1.83312 17.8428 3.38615 17.8449 4.93906 17.8327C5.17983 17.8309 5.23196 17.9048 5.22293 18.127C5.20596 18.5425 5.21804 18.9593 5.21804 19.4294V19.4295Z" fill="black"/>
<path d="M30.9197 28.5715C30.9197 26.7381 30.9179 24.9048 30.9203 23.0715C30.9219 21.9023 31.2193 20.8217 31.9076 19.8624C32.2398 19.3992 32.6332 18.9949 33.0997 18.667C33.2162 18.5851 33.267 18.503 33.2668 18.3594C33.2653 17.3549 33.2683 16.3505 33.2795 15.3461C33.2814 15.1845 33.213 15.1063 33.0852 15.0265C31.3873 13.9676 30.5129 12.4362 30.4974 10.4372C30.4845 8.76004 30.4961 7.0826 30.5075 5.40527C30.5255 2.75508 32.2971 0.55606 34.7739 0.0964673C38.1005 -0.520756 41.0553 1.89592 41.0929 5.28534C41.112 7.00146 41.1 8.71807 41.0824 10.4342C41.0647 12.1643 40.3833 13.5833 39.0158 14.6598C38.923 14.7328 38.8773 14.803 38.8778 14.9243C38.8823 16.0068 38.8833 17.0893 38.8775 18.1718C38.8768 18.3082 38.9305 18.3772 39.038 18.4487C40.703 19.5561 41.5175 21.1129 41.5095 23.1088C41.4954 26.6584 41.4863 30.2082 41.4777 33.7578C41.4726 35.8265 40.607 37.4219 38.8286 38.4905C35.6563 40.3963 31.4387 38.3476 30.9571 34.6823C30.9162 34.3713 30.9025 34.0614 30.9024 33.7497C30.9014 32.0236 30.9019 30.2976 30.9019 28.5715H30.9198H30.9197Z" fill="black"/>
<path d="M51.4057 19.3628C52.3221 18.7238 53.2623 18.245 54.2815 17.9294C56.0345 17.3866 57.805 17.2764 59.5858 17.7718C61.1967 18.2199 62.1992 19.2899 62.6631 20.8775C62.9082 21.7166 62.9719 22.5789 62.9714 23.4496C62.9689 28.3345 62.9687 33.2196 62.9753 38.1046C62.9755 38.3276 62.9278 38.3947 62.6929 38.393C61.0717 38.3815 59.4505 38.3814 57.8294 38.3931C57.5911 38.3948 57.5477 38.3216 57.5481 38.1019C57.5543 33.6752 57.5532 29.2485 57.5515 24.8216C57.5515 24.5587 57.5422 24.2952 57.5223 24.033C57.4354 22.8913 56.9694 22.4222 55.8356 22.2836C54.3786 22.1053 53.036 22.5095 51.7164 23.0516C51.6242 23.0895 51.5745 23.1432 51.5828 23.2476C51.5889 23.3251 51.5838 23.4036 51.5838 23.4815C51.5838 28.3373 51.5809 33.193 51.5911 38.0488C51.5917 38.3369 51.5155 38.3964 51.2388 38.3938C49.647 38.3796 48.055 38.3827 46.4632 38.3919C46.2525 38.3931 46.1873 38.3531 46.1875 38.126C46.1947 31.4566 46.1946 24.7873 46.1879 18.1179C46.1876 17.8864 46.2492 17.832 46.476 17.8336C48.0288 17.8439 49.5816 17.8434 51.1344 17.8338C51.3502 17.8325 51.4224 17.8799 51.4112 18.1049C51.3913 18.5034 51.4055 18.9034 51.4055 19.3628H51.4057Z" fill="black"/>
<path d="M122.582 20.3109C123.155 19.9736 123.698 19.6733 124.27 19.4339C126.142 18.6517 128.078 18.3052 130.104 18.5958C131.243 18.7593 132.274 19.1547 133.043 20.0607C133.733 20.8737 134 21.8503 134.109 22.8827C134.159 23.3581 134.167 23.8359 134.167 24.3142C134.165 28.8874 134.163 33.4607 134.173 38.0338C134.173 38.3083 134.096 38.372 133.834 38.3644C133.18 38.3456 132.525 38.3476 131.871 38.3639C131.64 38.3698 131.583 38.3049 131.583 38.0754C131.59 33.551 131.588 29.0265 131.589 24.502C131.589 24.0725 131.579 23.6435 131.501 23.2206C131.255 21.8802 130.547 21.2209 129.197 21.0542C126.909 20.7717 124.81 21.3401 122.825 22.4425C122.643 22.5434 122.661 22.6836 122.661 22.8373C122.661 25.3921 122.661 27.9468 122.661 30.5016C122.661 33.0564 122.656 35.5331 122.668 38.0488C122.669 38.3168 122.592 38.3706 122.341 38.3643C121.648 38.3467 120.955 38.3534 120.261 38.3617C120.099 38.3637 120.031 38.3259 120.045 38.1532C120.059 37.9789 120.048 37.8025 120.048 37.6269C120.048 31.4741 120.051 25.3211 120.041 19.1683C120.04 18.8782 120.117 18.8179 120.392 18.8272C121.046 18.8492 121.701 18.8406 122.355 18.8301C122.531 18.8273 122.594 18.8666 122.587 19.0532C122.572 19.4524 122.583 19.8526 122.583 20.3107L122.582 20.3109Z" fill="black"/>
<path d="M109.77 33.4819C110.754 30.6553 111.738 27.8306 112.721 25.0055C113.41 23.0228 114.102 21.0408 114.782 19.0549C114.852 18.8519 114.946 18.7903 115.156 18.7946C115.839 18.8085 116.524 18.81 117.207 18.7946C117.463 18.7888 117.493 18.8494 117.409 19.0845C115.97 23.1214 114.54 27.1616 113.106 31.2003C112.062 34.14 111.021 37.0804 109.967 40.0166C109.654 40.8893 109.253 41.7208 108.654 42.4432C107.927 43.3197 106.987 43.7921 105.867 43.9396C104.77 44.0841 103.71 43.9778 102.689 43.5284C102.509 43.449 102.448 43.3524 102.454 43.1564C102.469 42.6108 102.468 42.0642 102.455 41.5184C102.449 41.3062 102.503 41.2879 102.7 41.3372C103.597 41.5617 104.504 41.6433 105.426 41.4922C106.253 41.3566 106.82 40.8776 107.216 40.1723C107.728 39.2591 107.991 38.2451 108.369 37.2777C108.424 37.138 108.361 37.0101 108.314 36.8833C106.454 31.9658 104.594 27.0485 102.734 22.1312C102.352 21.1223 101.97 20.1136 101.589 19.1045C101.555 19.0157 101.529 18.9238 101.489 18.8003C102.373 18.8003 103.23 18.8015 104.087 18.7992C104.255 18.7987 104.255 18.9343 104.293 19.0365C104.937 20.7462 105.58 22.4563 106.223 24.1665C107.358 27.1863 108.492 30.2066 109.63 33.2253C109.663 33.3124 109.667 33.4212 109.77 33.482L109.77 33.4819Z" fill="black"/>
<path d="M87.7067 34.6959C87.9424 34.8085 88.1454 34.8973 88.3409 35.0003C90.1622 35.9594 92.1098 36.2824 94.146 36.1409C94.7714 36.0975 95.3807 35.9656 95.9433 35.6706C96.6111 35.3204 97.0486 34.7841 97.2209 34.0494C97.3886 33.3338 97.3673 32.6121 97.1656 31.9101C96.928 31.0827 96.2891 30.6227 95.5383 30.3072C94.3616 29.8127 93.1298 29.4745 91.9219 29.0683C91.2929 28.8567 90.6814 28.6085 90.1145 28.258C89.1179 27.6417 88.4361 26.7829 88.1293 25.65C87.8043 24.45 87.7821 23.2379 88.1421 22.0439C88.6479 20.3663 89.8148 19.3059 91.4676 18.8502C94.0173 18.1472 96.4889 18.4447 98.8457 19.6556C98.9617 19.7151 99.0162 19.7816 99.0147 19.9219C99.0068 20.6626 99.011 21.4034 99.011 22.1456C98.893 22.1785 98.8218 22.097 98.7394 22.0569C96.7992 21.1112 94.7617 20.7669 92.6277 21.1222C91.8055 21.2591 91.0796 21.6147 90.6768 22.4061C90.3444 23.059 90.3513 23.7576 90.4667 24.4611C90.6105 25.3386 91.157 25.8926 91.9284 26.2641C92.9256 26.7444 94.0049 26.9815 95.0529 27.3111C95.8892 27.5742 96.7164 27.8557 97.4916 28.2746C98.9501 29.0629 99.7023 30.3084 99.8798 31.9274C99.9901 32.933 99.9682 33.932 99.6713 34.9094C99.1431 36.6478 97.9606 37.7736 96.2439 38.2357C93.3667 39.0103 90.5847 38.6585 87.9421 37.2644C87.767 37.1721 87.6968 37.0648 87.7011 36.8597C87.7158 36.1522 87.7067 35.4444 87.7067 34.696V34.6959Z" fill="black"/>
<path d="M151.755 22.4501C151.077 22.0859 150.454 21.7217 149.772 21.4872C148.198 20.9465 146.588 20.805 144.96 21.166C143.402 21.5114 142.349 22.4995 141.682 23.9172C141.165 25.0182 140.955 26.1941 140.917 27.3996C140.864 29.0575 140.85 30.7151 141.327 32.3297C141.699 33.5907 142.338 34.6677 143.486 35.3804C144.283 35.8752 145.167 36.0873 146.093 36.1493C148.171 36.2883 150.076 35.7911 151.791 34.5978C151.843 34.5618 151.889 34.4997 151.998 34.5216C151.998 35.3127 151.996 36.1075 152 36.9023C152.001 37.013 151.929 37.0481 151.856 37.0972C150.009 38.3372 147.96 38.7775 145.763 38.6338C144.45 38.5479 143.203 38.2371 142.07 37.5494C140.429 36.5539 139.446 35.0607 138.868 33.2722C138.274 31.4364 138.191 29.544 138.265 27.6356C138.329 25.9768 138.605 24.3635 139.33 22.8541C140.519 20.3765 142.5 18.9658 145.214 18.5942C146.788 18.3788 148.349 18.4699 149.876 18.9446C150.503 19.1397 151.077 19.4457 151.627 19.801C151.719 19.8601 151.758 19.9245 151.757 20.0362C151.753 20.8257 151.755 21.6152 151.755 22.4501H151.755Z" fill="black"/>
<path d="M82.7346 10.024C82.7346 9.97521 82.7296 9.92592 82.7355 9.87785C82.752 9.74486 82.7133 9.69069 82.5626 9.69118C80.8828 9.69667 79.203 9.69618 77.5231 9.69179C77.379 9.69142 77.3397 9.73974 77.3425 9.87736C77.3502 10.2575 77.3451 10.6378 77.3451 11.0181C77.3451 13.3485 77.3457 15.6791 77.3431 18.0095C77.343 18.1215 77.4194 18.3191 77.1508 18.1937C76.0073 17.6601 74.7918 17.4725 73.5398 17.4653C71.8374 17.4556 70.2238 17.7873 68.7766 18.7244C66.9979 19.8762 66.0018 21.5781 65.4292 23.5631C64.8881 25.4387 64.7991 27.3635 64.8572 29.2981C64.9013 30.764 65.1033 32.2071 65.5995 33.5978C66.9646 37.4241 70.1647 39.2038 74.0773 38.6305C75.4378 38.4312 76.6691 37.942 77.7609 37.0142C77.8589 37.4125 77.9587 37.7666 78.0299 38.1263C78.0719 38.3383 78.1685 38.3938 78.3805 38.3922C79.7184 38.3816 81.0567 38.3775 82.3945 38.3944C82.6769 38.398 82.7418 38.3299 82.7416 38.0478C82.7331 28.7064 82.7345 19.3651 82.7345 10.0236L82.7346 10.024ZM77.3447 27.9021C77.3447 29.549 77.3447 31.1957 77.3447 32.8425C77.3447 32.9874 77.3571 33.1243 77.2092 33.2302C75.7565 34.2697 74.1781 34.467 72.5247 33.848C71.5319 33.4764 71.0603 32.6098 70.7673 31.647C70.3731 30.3518 70.3783 29.0156 70.3873 27.6802C70.3944 26.626 70.4586 25.5775 70.7626 24.5601C71.1028 23.4217 71.7005 22.484 72.9265 22.1672C74.3364 21.8027 75.7262 21.9384 77.0778 22.4851C77.2972 22.5739 77.3503 22.7096 77.3492 22.9327C77.3405 24.5892 77.3446 26.2458 77.3446 27.9023L77.3447 27.9021Z" fill="black"/>
<path d="M33.6616 24.6634C35.1722 26.7658 37.9729 26.1529 38.7214 24.0868C38.7971 24.1329 38.7672 24.2051 38.7672 24.2609C38.7669 27.2743 38.7716 30.2878 38.7586 33.3012C38.7539 34.3577 38.328 35.21 37.3966 35.7623C36.2229 36.4583 34.6729 36.0077 34.0163 34.7952C33.7646 34.3305 33.6432 33.8387 33.6438 33.3112C33.6465 30.483 33.646 27.655 33.6471 24.8268C33.6471 24.7898 33.6536 24.7528 33.6617 24.6633L33.6616 24.6634Z" fill="#5AB279"/>
<path d="M38.3332 10.1489C36.9401 8.42745 34.3394 8.73198 33.4112 10.9171C33.3009 10.6775 33.2475 10.4505 33.2438 10.2173C33.2194 8.67805 33.1965 7.13762 33.2625 5.59999C33.3209 4.24098 34.3833 3.17221 35.7414 3.10804C36.7457 3.0607 37.4882 3.56617 37.99 4.42252C38.2516 4.86906 38.3649 5.36013 38.3642 5.8756C38.3623 7.2495 38.3566 8.62327 38.3518 9.99717C38.3516 10.0328 38.3433 10.0683 38.3332 10.1491V10.1489Z" fill="#4DAAE8"/>
<path d="M35.9699 22.9539C35.1363 21.2769 35.0638 14.4279 35.9565 12.182C36.7586 13.782 36.8802 20.6517 35.9699 22.9539Z" fill="#FEFEFE"/>
</svg>
