<svg width="30" height="30" viewBox="0 0 30 30" fill="none" xmlns="http://www.w3.org/2000/svg">
<path id="Vector" d="M15 0C15.7793 0 16.4062 0.626953 16.4062 1.40625V28.5938C16.4062 29.373 15.7793 30 15 30C14.2207 30 13.5938 29.373 13.5938 28.5938V1.40625C13.5938 0.626953 14.2207 0 15 0ZM2.8125 9.76172V20.2324L8.05078 15L2.8125 9.76172ZM0 7.5C0 6.74414 0.457031 6.05859 1.16016 5.76562C1.86328 5.47266 2.66602 5.63672 3.20508 6.16992L10.7051 13.6699C11.4375 14.4023 11.4375 15.5918 10.7051 16.3242L3.20508 23.8242C2.66602 24.3633 1.86328 24.5215 1.16016 24.2285C0.457031 23.9355 0 23.2559 0 22.5V7.5ZM21.9492 15L27.1875 20.2383V9.76758L21.9492 15ZM28.8398 5.76562C29.543 6.05859 30 6.73828 30 7.5V22.5C30 23.2559 29.543 23.9414 28.8398 24.2344C28.1367 24.5273 27.334 24.3633 26.7949 23.8301L19.2949 16.3301C18.5625 15.5977 18.5625 14.4082 19.2949 13.6758L26.7949 6.17578C27.334 5.63672 28.1367 5.47852 28.8398 5.77148V5.76562Z" fill="#333333"/>
</svg>
